<?xml version="1.0" encoding="UTF-8" standalone="no"?>
<!DOCTYPE svg PUBLIC "-//W3C//DTD SVG 1.1//EN" "http://www.w3.org/Graphics/SVG/1.1/DTD/svg11.dtd">
<svg width="100%" height="100%" viewBox="0 0 2708 636" version="1.1" xmlns="http://www.w3.org/2000/svg" xmlns:xlink="http://www.w3.org/1999/xlink" xml:space="preserve" xmlns:serif="http://www.serif.com/" style="fill-rule:evenodd;clip-rule:evenodd;stroke-linejoin:round;stroke-miterlimit:1.41421;">
    <g transform="matrix(3.125,0,0,3.125,0,0)">
        <g transform="matrix(0.789139,0,0,0.789139,-138.571,133.971)">
            <g transform="matrix(253.441,0,0,253.441,152.704,79.0286)">
                <path d="M0.467,-0.647L0.204,-0.647L0.204,-0.466L0.458,-0.466L0.458,-0.359L0.204,-0.359L0.204,0L0.09,0L0.09,-0.754L0.467,-0.754L0.467,-0.647Z" style="fill-rule:nonzero;"/>
            </g>
            <g transform="matrix(253.441,0,0,253.441,258.768,79.0286)">
                <path d="M0.533,-0.183L0.21,-0.183L0.126,0L0.004,0L0.377,-0.801L0.737,0L0.612,0L0.533,-0.183ZM0.487,-0.29L0.375,-0.546L0.258,-0.29L0.487,-0.29Z" style="fill-rule:nonzero;"/>
            </g>
            <g transform="matrix(253.441,0,0,253.441,436.36,79.0286)">
                <path d="M0.346,-0.321L0.579,0L0.44,0L0.225,-0.309L0.204,-0.309L0.204,0L0.09,0L0.09,-0.754L0.224,-0.754C0.323,-0.754 0.395,-0.735 0.439,-0.698C0.488,-0.656 0.513,-0.601 0.513,-0.533C0.513,-0.479 0.497,-0.433 0.467,-0.395C0.436,-0.357 0.396,-0.332 0.346,-0.321ZM0.204,-0.408L0.24,-0.408C0.348,-0.408 0.402,-0.449 0.402,-0.531C0.402,-0.608 0.349,-0.647 0.245,-0.647L0.204,-0.647L0.204,-0.408Z" style="fill-rule:nonzero;"/>
            </g>
            <g transform="matrix(253.441,0,0,253.441,578.806,79.0286)">
                <path d="M0.064,0L0.223,-0.811L0.481,-0.225L0.75,-0.811L0.892,0L0.775,0L0.703,-0.455L0.479,0.035L0.263,-0.456L0.182,0L0.064,0Z" style="fill-rule:nonzero;"/>
            </g>
            <g transform="matrix(253.441,0,0,253.441,812.333,79.0286)">
                <path d="M0.533,-0.183L0.21,-0.183L0.126,0L0.004,0L0.377,-0.801L0.737,0L0.612,0L0.533,-0.183ZM0.487,-0.29L0.375,-0.546L0.258,-0.29L0.487,-0.29Z" style="fill:rgb(34,119,44);fill-rule:nonzero;"/>
            </g>
            <g transform="matrix(253.441,0,0,253.441,989.925,79.0286)">
                <rect x="0.09" y="-0.754" width="0.114" height="0.754" style="fill:rgb(34,119,44);fill-rule:nonzero;"/>
            </g>
            <g transform="matrix(253.441,0,0,253.441,1054.53,79.0286)">
                <path d="M0.346,-0.321L0.579,0L0.44,0L0.225,-0.309L0.204,-0.309L0.204,0L0.09,0L0.09,-0.754L0.224,-0.754C0.323,-0.754 0.395,-0.735 0.439,-0.698C0.488,-0.656 0.513,-0.601 0.513,-0.533C0.513,-0.479 0.497,-0.433 0.467,-0.395C0.436,-0.357 0.396,-0.332 0.346,-0.321ZM0.204,-0.408L0.24,-0.408C0.348,-0.408 0.402,-0.449 0.402,-0.531C0.402,-0.608 0.349,-0.647 0.245,-0.647L0.204,-0.647L0.204,-0.408Z" style="fill:rgb(34,119,44);fill-rule:nonzero;"/>
            </g>
        </g>
        <g transform="matrix(0.425214,0.425214,-0.425214,0.425214,-581.693,-1840.4)">
            <path d="M3867.05,490.6C3884.66,500.794 3896.51,519.839 3896.51,541.63C3896.51,563.421 3884.66,582.465 3867.05,592.66C3849.44,582.465 3837.59,563.421 3837.59,541.63C3837.59,519.839 3849.44,500.794 3867.05,490.6Z" style="fill:rgb(34,119,44);"/>
        </g>
    </g>
</svg>
