<?xml version="1.0" encoding="UTF-8" standalone="no"?>
<!DOCTYPE svg PUBLIC "-//W3C//DTD SVG 1.1//EN" "http://www.w3.org/Graphics/SVG/1.1/DTD/svg11.dtd">
<svg width="100%" height="100%" viewBox="0 0 236 50" version="1.1" xmlns="http://www.w3.org/2000/svg" xmlns:xlink="http://www.w3.org/1999/xlink" xml:space="preserve" xmlns:serif="http://www.serif.com/" style="fill-rule:evenodd;clip-rule:evenodd;stroke-linejoin:round;stroke-miterlimit:2;">
    <g id="Artboard1" transform="matrix(1,0,0,1,-2.84217e-14,-3.849)">
        <rect x="0" y="3.849" width="235.52" height="49.37" style="fill:none;"/>
        <g transform="matrix(1,0,0,1,-249.261,-47.5221)">
            <g transform="matrix(65.625,0,0,62.5,250.261,98.1211)">
                <path d="M0.008,-0.591L0.008,-0.7L0.551,-0.7L0.551,-0.591L0.311,-0.591L0.311,0L0.192,0L0.192,-0.591L0.008,-0.591Z" style="fill-rule:nonzero;"/>
            </g>
            <g transform="matrix(65.625,0,0,62.5,281.302,98.1211)">
                <path d="M0.194,-0.324L0.194,-0.104L0.619,-0.104L0.619,0L0.194,0L0.151,0L0.078,0L0.078,-0.7L0.504,-0.7L0.504,-0.596L0.194,-0.596L0.194,-0.426L0.484,-0.426L0.484,-0.324L0.194,-0.324Z" style="fill-rule:nonzero;"/>
            </g>
            <g transform="matrix(65.625,0,0,62.5,316.805,98.1211)">
                <path d="M0.196,-0.265L0.196,0L0.078,0L0.078,-0.7L0.294,-0.7C0.345,-0.7 0.389,-0.691 0.427,-0.673C0.464,-0.655 0.494,-0.63 0.515,-0.597C0.536,-0.564 0.546,-0.526 0.546,-0.482C0.546,-0.431 0.532,-0.388 0.505,-0.353C0.477,-0.318 0.439,-0.293 0.39,-0.278L0.514,-0.104L0.646,-0.104L0.647,0L0.445,0L0.268,-0.265L0.196,-0.265ZM0.196,-0.362L0.289,-0.362C0.33,-0.362 0.362,-0.372 0.387,-0.393C0.412,-0.414 0.424,-0.443 0.424,-0.48C0.424,-0.517 0.412,-0.546 0.387,-0.567C0.362,-0.588 0.33,-0.598 0.289,-0.598L0.196,-0.598L0.196,-0.362Z" style="fill-rule:nonzero;"/>
            </g>
            <g transform="matrix(65.625,0,0,62.5,353.883,98.1211)">
                <path d="M0.196,-0.265L0.196,0L0.078,0L0.078,-0.7L0.294,-0.7C0.345,-0.7 0.389,-0.691 0.427,-0.673C0.464,-0.655 0.494,-0.63 0.515,-0.597C0.536,-0.564 0.546,-0.526 0.546,-0.482C0.546,-0.431 0.532,-0.388 0.505,-0.353C0.477,-0.318 0.439,-0.293 0.39,-0.278L0.514,-0.104L0.623,-0.104L0.588,0L0.445,0L0.268,-0.265L0.196,-0.265ZM0.196,-0.362L0.289,-0.362C0.33,-0.362 0.362,-0.372 0.387,-0.393C0.412,-0.414 0.424,-0.443 0.424,-0.48C0.424,-0.517 0.412,-0.546 0.387,-0.567C0.362,-0.588 0.33,-0.598 0.289,-0.598L0.196,-0.598L0.196,-0.362Z" style="fill-rule:nonzero;"/>
            </g>
            <g transform="matrix(65.625,0,0,62.5,390.961,98.1211)">
                <path d="M0.216,-0.18L0.136,0L0.002,0L0.345,-0.739L0.688,0L0.554,0L0.474,-0.18L0.216,-0.18ZM0.25,-0.28L0.44,-0.28L0.345,-0.502L0.25,-0.28Z" style="fill-rule:nonzero;"/>
            </g>
            <g transform="matrix(65.625,0,0,62.5,434.274,98.1211)">
                <path d="M0.589,-0.7L0.705,-0.7L0.705,0.035L0.194,-0.463L0.194,0L0.078,0L0.078,-0.735L0.589,-0.236L0.589,-0.7Z" style="fill:rgb(64,196,255);fill-rule:nonzero;"/>
            </g>
        </g>
    </g>
</svg>
